<?xml version="1.0" standalone="no"?>
<!DOCTYPE svg PUBLIC "-//W3C//DTD SVG 20010904//EN"
 "http://www.w3.org/TR/2001/REC-SVG-20010904/DTD/svg10.dtd">
<svg version="1.0" xmlns="http://www.w3.org/2000/svg"
 width="512.000000pt" height="512.000000pt" viewBox="0 0 512.000000 512.000000"
 preserveAspectRatio="xMidYMid meet">
<metadata>
Created by potrace 1.16, written by Peter Selinger 2001-2019
</metadata>
<g transform="translate(0.000000,512.000000) scale(0.100000,-0.100000)"
fill="#000000" stroke="none">
<path d="M2391 5109 c-100 -20 -220 -70 -311 -132 -25 -17 -115 -100 -201
-184 -85 -84 -159 -153 -163 -153 -5 0 -224 104 -488 230 -389 187 -487 230
-521 230 -40 0 -46 -5 -169 -129 -118 -118 -128 -131 -128 -166 0 -20 7 -49
16 -63 13 -23 508 -407 732 -569 l64 -46 -244 -244 c-151 -151 -248 -241 -257
-238 -28 11 -380 37 -407 31 -30 -8 -277 -245 -300 -288 -8 -15 -14 -43 -14
-63 0 -63 34 -85 198 -129 78 -22 142 -44 142 -50 0 -6 -5 -27 -10 -46 -53
-185 -77 -601 -46 -822 l17 -117 -47 -103 c-104 -231 -182 -475 -227 -708 -18
-96 -22 -150 -22 -330 0 -189 3 -226 23 -303 92 -364 310 -588 667 -684 93
-25 115 -26 320 -27 174 -1 241 3 320 18 229 42 449 111 693 217 l136 59 116
-16 c164 -23 508 -15 675 15 303 55 556 152 817 313 111 68 138 96 138 145 0
45 -14 69 -52 89 -46 24 -81 13 -193 -57 -173 -109 -388 -202 -578 -249 -45
-12 -90 -23 -99 -26 -17 -5 -18 5 -18 123 0 187 -28 278 -113 370 -44 48 -97
83 -167 109 -37 14 -98 18 -356 23 l-311 6 -41 29 c-51 35 -92 112 -92 173 0
101 -74 213 -168 256 -38 17 -75 22 -192 27 -130 6 -150 9 -196 33 -161 82
-192 299 -62 424 44 42 98 64 182 73 104 12 150 54 166 155 11 69 33 103 81
127 30 16 69 18 345 18 351 0 387 -5 454 -67 85 -76 84 -73 91 -393 6 -314 9
-332 72 -399 51 -54 103 -71 236 -80 135 -8 168 -22 216 -90 30 -43 30 -43 35
-214 3 -112 10 -180 18 -194 30 -53 107 -61 153 -17 l29 28 0 175 c0 226 -21
297 -112 390 -82 85 -167 118 -324 129 l-109 7 -6 275 c-5 245 -8 281 -27 332
-58 159 -189 275 -348 308 -32 7 -182 10 -400 8 l-349 -3 -55 -26 c-89 -41
-163 -128 -185 -216 l-12 -46 -72 -18 c-218 -55 -361 -233 -361 -449 0 -167
76 -306 218 -397 79 -51 131 -64 289 -71 175 -9 180 -12 194 -122 16 -131 84
-243 188 -309 91 -59 118 -63 451 -70 297 -6 306 -7 343 -29 20 -13 50 -45 65
-70 26 -45 27 -55 31 -198 l3 -152 -91 -7 c-103 -8 -267 0 -416 20 -825 113
-1519 733 -1725 1541 l-23 91 53 99 c64 122 230 394 239 394 4 0 18 -41 31
-91 33 -129 74 -172 144 -149 41 13 304 276 314 314 4 15 0 114 -10 219 l-17
192 243 243 242 243 299 -392 c313 -409 326 -423 390 -412 44 8 270 236 280
281 6 30 -19 88 -231 529 l-238 495 110 107 c115 112 251 204 504 341 l115 62
60 -12 c232 -46 549 -195 773 -364 102 -78 282 -241 282 -257 0 -5 -60 -9
-136 -9 -154 0 -226 -14 -315 -62 -167 -88 -276 -253 -298 -450 -5 -46 -15
-87 -24 -95 -8 -8 -43 -18 -78 -23 -82 -11 -120 -23 -172 -54 -108 -62 -181
-177 -199 -309 -31 -233 86 -430 291 -491 47 -14 119 -16 483 -16 297 0 436 3
451 11 54 28 71 83 43 138 -26 50 -36 51 -484 51 l-417 0 -52 24 c-36 17 -60
38 -80 67 -25 37 -28 53 -31 133 -3 79 0 97 20 136 33 65 89 100 174 110 87 9
139 31 187 78 55 53 76 101 88 200 17 140 71 235 173 299 70 45 118 53 308 53
97 0 188 4 202 10 23 9 28 4 81 -78 31 -48 84 -145 119 -217 280 -570 284
-1226 11 -1813 -30 -65 -55 -129 -55 -141 0 -77 96 -129 158 -85 44 30 166
308 221 499 29 102 58 256 70 367 16 142 14 419 -4 546 l-15 109 50 114 c101
227 176 458 222 689 20 100 23 144 22 340 0 212 -2 231 -27 325 -86 317 -286
537 -577 635 -238 81 -552 82 -885 3 -217 -51 -591 -195 -764 -294 -37 -21
-84 -48 -105 -59 l-39 -22 8 34 c4 18 11 51 16 73 14 65 11 222 -5 260 -23 53
-57 65 -188 64 -62 -1 -133 -5 -157 -10z m154 -241 c-9 -76 -32 -153 -68 -227
-27 -55 -65 -100 -233 -271 -126 -129 -203 -215 -208 -233 -8 -35 2 -58 263
-600 110 -230 201 -422 201 -426 0 -4 -15 -22 -34 -40 l-33 -32 -65 83 c-35
46 -160 209 -278 363 -268 352 -271 355 -329 355 l-45 0 -323 -323 -323 -323
0 -53 c0 -29 7 -128 16 -219 l15 -165 -42 -43 c-30 -30 -45 -40 -50 -32 -4 7
-37 123 -74 258 -37 135 -71 253 -76 262 -15 28 -40 37 -302 109 -138 38 -251
70 -253 72 -2 2 16 23 41 47 l44 43 195 -18 c108 -9 206 -15 219 -11 12 3 167
151 345 328 308 310 322 325 322 361 0 30 -8 46 -37 77 -21 21 -201 163 -401
315 -199 152 -362 279 -362 284 0 4 15 21 33 38 l32 32 488 -235 c359 -172
497 -234 523 -234 34 0 51 14 238 198 184 182 208 202 286 241 83 40 182 69
248 70 l33 1 -6 -52z m1766 26 c298 -56 478 -216 566 -501 26 -84 27 -99 27
-298 1 -193 -2 -221 -27 -340 -16 -71 -53 -205 -85 -297 l-56 -168 -28 77
c-160 438 -490 850 -893 1116 -105 69 -357 196 -451 227 -36 12 -64 24 -62 26
2 2 60 23 129 48 139 49 299 91 428 111 123 19 350 19 452 -1z m-3677 -1812
l59 -17 24 -88 24 -88 -104 -157 c-58 -86 -117 -178 -132 -204 -15 -27 -29
-48 -32 -48 -10 0 7 281 22 382 8 52 21 127 30 166 19 81 16 80 109 54z m-224
-1327 c31 -93 158 -345 227 -450 184 -279 442 -529 723 -701 112 -68 286 -153
393 -192 l77 -28 -168 -56 c-238 -81 -379 -109 -582 -115 -188 -6 -275 4 -398
46 -210 73 -357 220 -427 429 -73 216 -57 561 41 881 30 97 84 251 89 251 2 0
13 -29 25 -65z"/>
<path d="M4148 1193 c-95 -59 -37 -208 72 -186 95 19 114 159 26 191 -43 16
-66 15 -98 -5z"/>
</g>
</svg>
